<?xml version="1.0" encoding="utf-8"?>
<!-- Generator: Adobe Illustrator 23.0.1, SVG Export Plug-In . SVG Version: 6.00 Build 0)  -->
<svg version="1.1" xmlns="http://www.w3.org/2000/svg" xmlns:xlink="http://www.w3.org/1999/xlink" x="0px" y="0px"
	 viewBox="0 0 378.7 29.2" style="enable-background:new 0 0 378.7 29.2;" xml:space="preserve">
<style type="text/css">
	.st0{enable-background:new    ;}
	.st1{fill:#FFFF00;}
</style>
<g id="Layer_4_xA0_Image_1_">
</g>
<g id="Vector_Smart_Object_xA0_Image_3_">
</g>
<g id="Shape_1_1_" class="st0">
</g>
<g id="Ellipse_1_1_" class="st0">
</g>
<g id="ONEMANSHOW">
	<g>
		<path class="st1" d="M21.7,11.9c0,0.4,0,1.3,0,2.6c0,1.3,0,2.2,0,2.6c0,0.4,0,1.2-0.1,2.3c-0.1,1.1-0.2,1.9-0.4,2.4
			c-0.2,0.6-0.5,1.2-0.9,2c-0.4,0.7-0.9,1.4-1.5,2c-2.1,2.1-4.8,3.2-8,3.2c-3.2,0-5.8-1.1-8-3.2c-0.6-0.6-1.1-1.3-1.5-2
			c-0.4-0.7-0.7-1.4-0.9-2c-0.2-0.6-0.3-1.4-0.4-2.4C0,18.3,0,17.6,0,17.1c0-0.4,0-1.3,0-2.6c0-1.3,0-2.2,0-2.6s0-1.2,0.1-2.3
			c0.1-1.1,0.2-1.9,0.4-2.4C0.7,6.6,1,6,1.4,5.2c0.4-0.7,0.9-1.4,1.5-2C5,1.1,7.7,0,10.9,0c3.2,0,5.8,1.1,8,3.2
			c0.6,0.6,1.1,1.3,1.5,2c0.4,0.7,0.7,1.4,0.9,2c0.2,0.6,0.3,1.4,0.4,2.4C21.7,10.7,21.7,11.4,21.7,11.9z M14.5,19.4
			c0.2-0.9,0.2-2.5,0.2-4.9c0-2.4-0.1-4.1-0.2-4.9C14.3,8.7,14,8,13.7,7.5c-0.6-0.8-1.6-1.2-2.8-1.2C9.6,6.2,8.7,6.7,8,7.5
			C7.7,8,7.4,8.7,7.2,9.6C7.1,10.4,7,12.1,7,14.5c0,2.4,0.1,4,0.2,4.9s0.4,1.6,0.8,2c0.6,0.9,1.6,1.3,2.8,1.3c1.2,0,2.2-0.4,2.8-1.3
			C14,21,14.3,20.3,14.5,19.4z"/>
		<path class="st1" d="M48.8,28.8h-6.1l-9.1-14.3v14.3h-7V0.2h6.1l9.1,14.3V0.2h7V28.8z"/>
		<path class="st1" d="M74,28.8H54.6V0.2H74v6.2H61.6v4.8h10.6v6.2H61.6v5H74V28.8z"/>
		<path class="st1" d="M105.5,28.8h-7V15.1l-4,7H90l-4-7v13.7h-7V0.2h6.9l6.4,12.6l6.4-12.6h6.9V28.8z"/>
		<path class="st1" d="M134.5,28.8h-7.3l-1.3-4.2h-8.8l-1.4,4.2h-7.3l10.4-28.5h5.4L134.5,28.8z M124.1,18.7l-2.4-7.6l-2.6,7.6
			H124.1z"/>
		<path class="st1" d="M159.7,28.8h-6.1l-9.1-14.3v14.3h-7V0.2h6.1l9.1,14.3V0.2h7V28.8z"/>
		<path class="st1" d="M184.6,20c0,2.8-1,5-3.1,6.6c-2.1,1.6-4.7,2.4-7.9,2.4c-2.3,0-4.4-0.3-6.1-0.8c-1.7-0.5-3.3-1.5-4.7-2.9
			l4.5-4.5c1.3,1.3,3.5,2,6.4,2c2.7,0,4.1-0.9,4.1-2.6c0-0.7-0.2-1.3-0.6-1.7c-0.4-0.4-1-0.7-1.9-0.8l-3.4-0.5
			c-2.5-0.4-4.4-1.2-5.7-2.5c-1.3-1.3-2-3.2-2-5.7c0-2.6,0.9-4.8,2.8-6.5c1.9-1.7,4.4-2.5,7.6-2.5c4.1,0,7.3,1.1,9.6,3.4l-4.4,4.4
			c-0.6-0.6-1.2-1-2-1.2c-0.8-0.3-1.4-0.4-1.7-0.4c-0.3,0-0.9,0-1.6,0c-1.1,0-2,0.3-2.6,0.8c-0.6,0.5-0.9,1.1-0.9,1.8
			c0,0.5,0.2,0.9,0.6,1.3c0.5,0.5,1.1,0.7,2,0.8l3.4,0.5c2.5,0.3,4.4,1.1,5.6,2.4C183.9,15.2,184.6,17.2,184.6,20z"/>
		<path class="st1" d="M210.7,28.8h-7V17.5h-7.4v11.3h-7V0.2h7v11h7.4v-11h7V28.8z"/>
		<path class="st1" d="M237.2,11.9c0,0.4,0,1.3,0,2.6c0,1.3,0,2.2,0,2.6c0,0.4,0,1.2-0.1,2.3c-0.1,1.1-0.2,1.9-0.4,2.4
			c-0.2,0.6-0.5,1.2-0.9,2c-0.4,0.7-0.9,1.4-1.5,2c-2.1,2.1-4.8,3.2-8,3.2c-3.2,0-5.8-1.1-8-3.2c-0.6-0.6-1.1-1.3-1.5-2
			c-0.4-0.7-0.7-1.4-0.9-2c-0.2-0.6-0.3-1.4-0.4-2.4c-0.1-1.1-0.1-1.8-0.1-2.3c0-0.4,0-1.3,0-2.6c0-1.3,0-2.2,0-2.6s0-1.2,0.1-2.3
			c0.1-1.1,0.2-1.9,0.4-2.4c0.2-0.6,0.5-1.2,0.9-2c0.4-0.7,0.9-1.4,1.5-2c2.1-2.1,4.8-3.2,8-3.2c3.2,0,5.8,1.1,8,3.2
			c0.6,0.6,1.1,1.3,1.5,2c0.4,0.7,0.7,1.4,0.9,2c0.2,0.6,0.3,1.4,0.4,2.4C237.2,10.7,237.2,11.4,237.2,11.9z M230,19.4
			c0.2-0.9,0.2-2.5,0.2-4.9c0-2.4-0.1-4.1-0.2-4.9c-0.2-0.9-0.4-1.6-0.8-2.1c-0.6-0.8-1.6-1.2-2.8-1.2c-1.2,0-2.2,0.4-2.8,1.2
			c-0.4,0.5-0.6,1.2-0.8,2.1c-0.2,0.9-0.2,2.5-0.2,4.9c0,2.4,0.1,4,0.2,4.9s0.4,1.6,0.8,2c0.6,0.9,1.6,1.3,2.8,1.3
			c1.2,0,2.2-0.4,2.8-1.3C229.5,21,229.8,20.3,230,19.4z"/>
		<path class="st1" d="M275.5,0.2l-7.8,28.5h-5.7l-4.6-14.1l-4.6,14.1H247l-7.8-28.5h7.3l3.7,15.1l4.6-15.1h5l4.6,15.1l3.7-15.1
			H275.5z"/>
	</g>
</g>
<g id="STORE">
	<g>
		<path class="st1" d="M310.8,23.6c0,1.7-0.6,3.1-1.9,4.1s-2.9,1.5-5,1.5c-1.5,0-2.7-0.2-3.8-0.6c-1.1-0.4-2-1.1-3-2l1.4-1.4
			c0.8,0.8,1.6,1.4,2.4,1.7c0.8,0.3,1.8,0.5,2.9,0.5c1.4,0,2.6-0.3,3.4-1c0.8-0.6,1.2-1.5,1.2-2.7c0-1.1-0.3-1.9-0.9-2.5
			c-0.3-0.3-0.6-0.5-1-0.6c-0.3-0.1-0.9-0.2-1.6-0.3l-2.3-0.4c-1.6-0.3-2.8-0.8-3.6-1.5c-1-0.9-1.5-2.1-1.5-3.7c0-1.7,0.6-3,1.7-4
			c1.1-1,2.7-1.5,4.6-1.5c1.3,0,2.3,0.2,3.2,0.5c0.9,0.3,1.8,0.9,2.6,1.7l-1.4,1.4c-1.2-1.1-2.8-1.7-4.6-1.7c-1.3,0-2.3,0.3-3,1
			c-0.7,0.7-1.1,1.5-1.1,2.7c0,1,0.3,1.8,0.9,2.3c0.6,0.5,1.5,0.9,2.7,1.1l2.2,0.3c1.6,0.2,2.8,0.7,3.6,1.4
			C310.2,20.7,310.8,22,310.8,23.6z"/>
		<path class="st1" d="M326.6,11.2h-5.7V29h-2.1V11.2h-5.7V9.3h13.5V11.2z"/>
		<path class="st1" d="M343.1,14c0.2,1,0.3,2.7,0.3,5.2s-0.1,4.1-0.3,5.2c-0.2,1-0.7,2-1.6,2.8c-1.4,1.4-3,2-5,2c-2,0-3.7-0.7-5-2
			c-0.8-0.8-1.4-1.8-1.6-2.8c-0.2-1-0.3-2.7-0.3-5.2s0.1-4.1,0.3-5.2c0.2-1,0.7-2,1.6-2.8c1.4-1.4,3-2,5-2c2,0,3.7,0.7,5,2
			C342.3,12.1,342.9,13,343.1,14z M341,23.7c0.2-0.9,0.2-2.4,0.2-4.5c0-2.2-0.1-3.7-0.2-4.5s-0.5-1.6-1.1-2.2
			c-0.9-0.9-2-1.4-3.4-1.4c-1.4,0-2.5,0.5-3.4,1.4c-0.6,0.6-1,1.3-1.1,2.2s-0.2,2.4-0.2,4.5c0,2.2,0.1,3.7,0.2,4.5s0.5,1.6,1.1,2.2
			c0.9,0.9,2,1.4,3.4,1.4c1.4,0,2.5-0.5,3.4-1.4C340.5,25.3,340.8,24.6,341,23.7z"/>
		<path class="st1" d="M362.1,29h-2.5l-4.5-8.7h-4.7V29h-2.1V9.3h7.6c1.7,0,3.1,0.5,4.2,1.5s1.6,2.3,1.6,4c0,1.4-0.4,2.6-1.2,3.5
			c-0.8,0.9-1.8,1.5-3.1,1.8L362.1,29z M358.5,17.5c0.7-0.6,1.1-1.5,1.1-2.7c0-1.2-0.4-2.1-1.1-2.7c-0.7-0.6-1.7-0.9-2.9-0.9h-5.3
			v7.2h5.3C356.9,18.5,357.8,18.1,358.5,17.5z"/>
		<path class="st1" d="M378.7,29h-12.2V9.3h12.2v1.9h-10.1v6.9h8.6v1.9h-8.6v7.1h10.1V29z"/>
	</g>
</g>
<g id="HOME">
</g>
<g id="FOOTPRINT_ZOOM_OUT_hoodie">
</g>
<g id="FOOTPRINT_ZOOM_IN_triko">
</g>
<g id="MOONLANDING_CONSPIRACY_triko">
</g>
<g id="_x37_90_Kč_3_">
</g>
<g id="_x37_90_Kč_2_">
</g>
<g id="_x31_790_Kč_1_">
</g>
<g id="MONA_LISA_hoodie">
</g>
<g id="MARILYN_triko">
</g>
<g id="Vector_Smart_Object_xA0_Image_1_">
</g>
<g id="Vector_Smart_Object_copy_xA0_Image_1_">
</g>
<g id="Vector_Smart_Object_copy_2_xA0_Image_1_">
</g>
<g id="Vector_Smart_Object_copy_3_xA0_Image_1_">
</g>
<g id="EINSTEIN_triko">
</g>
<g id="PODPORA__x26__xA0_INFO">
</g>
<g id="OBCHODNÍ_PODMÍNKY">
</g>
<g id="COPYRIGHT__xA9__2019_ONEMANSHOW_PRODUCTION_x2C__S.R.O._1_">
</g>
<g id="KONTAKT">
</g>
<g id="_x37_90_Kč_1_">
</g>
<g id="_x37_90_Kč">
</g>
<g id="_x31_790_Kč">
</g>
<g id="_x25__SLEVY">
</g>
<g id="PRODUKTY">
</g>
<g id="_x30__Kč">
</g>
<g id="_x30_">
</g>
<g id="BLAX2660_xA0_Image_1_">
</g>
<g id="BLAX1908_xA0_Image_1_">
</g>
<g id="BLAX3493_xA0_Image_1_">
</g>
<g id="BLAX9560_xA0_Image_1_">
</g>
<g id="Group_1_1_">
</g>
<g id="download-2_xA0_Image_1_">
</g>
<g id="download_xA0_Image_1_">
</g>
<g id="download-1_xA0_Image_1_">
</g>
<g id="triangle_xA0_Image_1_">
</g>
<g id="BLAX3274_xA0_Image_1_">
</g>
<g id="BLAX9957_xA0_Image_1_">
</g>
<g id="BLAX3539_xA0_Image_1_">
</g>
<g id="BLAX0454_xA0_Image_1_">
</g>
<g id="BLAX1876_xA0_Image_1_">
</g>
<g id="BLAX2692_xA0_Image_1_">
</g>
</svg>
